<?xml version="1.0" encoding="utf-8"?>
<!-- Generator: Adobe Illustrator 21.0.0, SVG Export Plug-In . SVG Version: 6.00 Build 0)  -->
<svg version="1.1" id="Слой_1" xmlns="http://www.w3.org/2000/svg" xmlns:xlink="http://www.w3.org/1999/xlink" x="0px" y="0px"
	 viewBox="0 0 54 53.3" style="enable-background:new 0 0 54 53.3;" xml:space="preserve">
<style type="text/css">
	.st0{fill:#424242;}
</style>
<g>
	<path class="st0" d="M53,49.3c-1.9,0-2.9,0.6-3.8,1.1c-0.8,0.5-1.4,0.9-2.7,0.9c-1.3,0-2-0.4-2.7-0.9c-0.9-0.5-1.9-1.1-3.8-1.1
		c-1.9,0-2.9,0.6-3.8,1.1c-0.8,0.5-1.4,0.9-2.7,0.9c-1.3,0-2-0.4-2.7-0.9c-0.9-0.5-1.9-1.1-3.8-1.1c-1.9,0-2.9,0.6-3.8,1.1
		c-0.8,0.5-1.4,0.9-2.7,0.9c-1.3,0-2-0.4-2.7-0.9c-0.9-0.5-1.9-1.1-3.8-1.1c-1.9,0-2.9,0.6-3.8,1.1c-0.8,0.5-1.4,0.9-2.7,0.9
		s-2-0.4-2.7-0.9c-0.9-0.5-1.9-1.1-3.8-1.1c-0.6,0-1,0.4-1,1s0.4,1,1,1c1.3,0,2,0.4,2.7,0.9c0.9,0.5,1.9,1.1,3.8,1.1
		c1.9,0,2.9-0.6,3.8-1.1c0.8-0.5,1.4-0.9,2.7-0.9s2,0.4,2.7,0.9c0.9,0.5,1.9,1.1,3.8,1.1c1.9,0,2.9-0.6,3.8-1.1
		c0.8-0.5,1.4-0.9,2.7-0.9c1.3,0,2,0.4,2.7,0.9c0.9,0.5,1.9,1.1,3.8,1.1c1.9,0,2.9-0.6,3.8-1.1c0.8-0.5,1.4-0.9,2.7-0.9
		c1.3,0,2,0.4,2.7,0.9c0.9,0.5,1.9,1.1,3.8,1.1c1.9,0,2.9-0.6,3.8-1.1c0.8-0.5,1.4-0.9,2.7-0.9c0.6,0,1-0.4,1-1S53.6,49.3,53,49.3z"
		/>
	<path class="st0" d="M1,45.3c1.3,0,2,0.4,2.7,0.9c0.9,0.5,1.9,1.1,3.8,1.1c1.9,0,2.9-0.6,3.8-1.1c0.8-0.5,1.4-0.9,2.7-0.9
		s2,0.4,2.7,0.9c0.9,0.5,1.9,1.1,3.8,1.1c1.9,0,2.9-0.6,3.8-1.1c0.8-0.5,1.4-0.9,2.7-0.9c1.3,0,2,0.4,2.7,0.9
		c0.9,0.5,1.9,1.1,3.8,1.1c1.9,0,2.9-0.6,3.8-1.1c0.8-0.5,1.4-0.9,2.7-0.9c1.3,0,2,0.4,2.7,0.9c0.9,0.5,1.9,1.1,3.8,1.1
		c1.9,0,2.9-0.6,3.8-1.1c0.8-0.5,1.4-0.9,2.7-0.9c0.6,0,1-0.4,1-1s-0.4-1-1-1c-1.9,0-2.9,0.6-3.8,1.1c-0.8,0.5-1.4,0.9-2.7,0.9
		c-1.3,0-2-0.4-2.7-0.9c-0.7-0.4-1.5-0.9-2.8-1.1v-4.1h3c1.7,0,3-1.3,3-3v-6c0-1.7-1.3-3-3-3v-12l3.4,2.7c0.2,0.1,0.4,0.2,0.6,0.2
		c0.3,0,0.6-0.1,0.8-0.4c0.3-0.4,0.3-1.1-0.1-1.4L29.2,0.7c-1.2-1-3.1-1-4.4,0L5.4,16.5c-0.4,0.3-0.5,1-0.1,1.4
		c0.3,0.4,1,0.5,1.4,0.1l3.4-2.7v12c-1.7,0-3,1.3-3,3v6c0,1.7,1.3,3,3,3h3v4.1c-1.3,0.2-2.1,0.6-2.8,1.1c-0.8,0.5-1.4,0.9-2.7,0.9
		s-2-0.4-2.7-0.9c-0.9-0.5-1.9-1.1-3.8-1.1c-0.6,0-1,0.4-1,1S0.4,45.3,1,45.3z M11.9,13.8L26.1,2.3c0.5-0.4,1.4-0.4,1.9,0l14.2,11.5
		c-0.1,0.1-0.1,0.3-0.1,0.5v13h-8v-10c0-1.7-1.3-3-3-3h-8c-1.7,0-3,1.3-3,3v10h-8v-13C12,14.1,11.9,13.9,11.9,13.8z M22,27.3v-10
		c0-0.6,0.4-1,1-1h8c0.6,0,1,0.4,1,1v10H22z M9,36.3v-6c0-0.6,0.4-1,1-1h34c0.6,0,1,0.4,1,1v6c0,0.6-0.4,1-1,1H10
		C9.4,37.3,9,36.8,9,36.3z M39,39.3v4.1c-1.3,0.2-2.1,0.6-2.8,1.1c-0.8,0.5-1.4,0.9-2.7,0.9c-1.3,0-2-0.4-2.7-0.9
		c-0.9-0.5-1.9-1.1-3.8-1.1c-1.9,0-2.9,0.6-3.8,1.1c-0.8,0.5-1.4,0.9-2.7,0.9c-1.3,0-2-0.4-2.7-0.9c-0.7-0.4-1.5-0.9-2.8-1.1v-4.1
		H39z"/>
	<path class="st0" d="M15,36.3c0.6,0,1-0.4,1-1v-4c0-0.6-0.4-1-1-1s-1,0.4-1,1v4C14,35.8,14.4,36.3,15,36.3z"/>
	<path class="st0" d="M23,36.3c0.6,0,1-0.4,1-1v-4c0-0.6-0.4-1-1-1s-1,0.4-1,1v4C22,35.8,22.4,36.3,23,36.3z"/>
	<path class="st0" d="M31,36.3c0.6,0,1-0.4,1-1v-4c0-0.6-0.4-1-1-1s-1,0.4-1,1v4C30,35.8,30.4,36.3,31,36.3z"/>
	<path class="st0" d="M39,36.3c0.6,0,1-0.4,1-1v-4c0-0.6-0.4-1-1-1c-0.6,0-1,0.4-1,1v4C38,35.8,38.4,36.3,39,36.3z"/>
</g>
</svg>
