<svg xmlns="http://www.w3.org/2000/svg" xmlns:xlink="http://www.w3.org/1999/xlink" width="40" height="43" viewBox="0 0 40 43"><defs><path id="ciafa" d="M765.05 1467.2c.13.3 3.01 7.47.51 11.23-.86 1.3-2.24 2.03-4.08 2.18v10.27h1.45c.4 0 .73.32.73.73 0 .4-.33.73-.73.73h-4.36a.73.73 0 0 1-.72-.73c0-.4.32-.73.72-.73h1.46v-10.28a4.68 4.68 0 0 1-3.1-1.4c-.85.81-2 1.3-3.44 1.4v10.28h1.45c.4 0 .73.32.73.73 0 .4-.33.73-.73.73h-4.35a.73.73 0 0 1-.73-.73c0-.4.33-.73.73-.73h1.45v-10.28a4.52 4.52 0 0 1-3.54-1.96c-2.44-3.67.56-11.12.69-11.44a.73.73 0 0 1 .67-.45h6.54c.29 0 .55.18.67.45l.05.14.06-.14a.73.73 0 0 1 .67-.45h6.53c.3 0 .56.18.67.45zm-7.19 2.42c.3 1.06.58 2.36.69 3.7h6.53c-.2-2.12-.88-4.21-1.2-5.11h-5.53c-.12.32-.28.78-.45 1.34l-.04.07zm-8.76 3.7h8c-.2-2.12-.88-4.21-1.2-5.11h-5.54a23.56 23.56 0 0 0-1.26 5.12zm7.27 4.3c.51-.78.73-1.77.77-2.83H749c0 1.18.19 2.26.7 3.04.61.9 1.61 1.35 3.07 1.35 1.72 0 2.9-.51 3.6-1.56zm7.98 0c.52-.78.73-1.77.78-2.83h-6.55a7.37 7.37 0 0 1-.76 3.2c.61.8 1.57 1.19 2.93 1.19 1.73 0 2.9-.51 3.6-1.56zm7.54-22.47c-.1-.6.06-1.18.42-1.61.37-.44.92-.68 1.51-.68h2.9c.6 0 1.15.24 1.51.68.37.43.52 1.02.42 1.6l-.24 1.51c-.17.99-.76 2.05-1.68 2.05h-2.9c-.93 0-1.53-1.06-1.69-2.05zm1.43-.24l.25 1.5c.07.43.25.73.35.83h2.7c.11-.1.28-.4.35-.83l.25-1.5a.52.52 0 0 0-.1-.43.51.51 0 0 0-.4-.16h-2.9a.51.51 0 0 0-.4.16.52.52 0 0 0-.1.43zm9.94 24.27v9.5a3.65 3.65 0 0 1-3.63 3.66h-8.71c-2 0-3.63-1.64-3.63-3.66v-9.5c0-1.7.52-4.35 1.16-5.91l2.87-7.02c.57-1.4 1.11-3.87 1.18-5.38 0 0 0-.2-.1-.47a.72.72 0 1 1 1.38-.46c.18.54.18.92.17 1a21.08 21.08 0 0 1-1.29 5.87l-2.87 7.02a17.16 17.16 0 0 0-1.05 5.35h13.07c0-1.51-.48-3.96-1.05-5.35l-2.87-7.02a19.8 19.8 0 0 1-1.23-5.9c0-.03 0-.37.08-.86.06-.4.43-.67.83-.6.4.06.66.44.6.84-.06.35-.06.6-.06.6.04 1.5.55 3.96 1.12 5.36l2.87 7.02a18.63 18.63 0 0 1 1.16 5.9zm-14.52 1.46v5.12h13.07v-5.12zm13.07 8.04v-1.46h-13.07v1.46c0 1.21.98 2.2 2.18 2.2h8.71c1.2 0 2.18-.99 2.18-2.2z"/></defs><g><g transform="translate(-745 -1451)"><use fill="#e94565" xlink:href="#ciafa"/></g></g></svg>