<svg xmlns="http://www.w3.org/2000/svg" xmlns:xlink="http://www.w3.org/1999/xlink" width="43" height="43" viewBox="0 0 43 43"><defs><path id="c84aa" d="M556.51 995.77l.07.1 2.9 6.58a.73.73 0 0 1-.66 1.03.73.73 0 0 1-.66-.43l-2.9-6.58a.73.73 0 0 1-.07-.3h-4.36v6.58c0 .4-.32.73-.72.73a.73.73 0 0 1-.73-.73v-6.58l.02-.13a2.19 2.19 0 0 1 .7-4.26h5.1c.4 0 .72.33.72.73 0 .4-.33.74-.73.74h-5.08a.73.73 0 0 0 0 1.46h5.08c.47 0 1-.42 1.13-.87l2.53-9.56c.1-.39.5-.62.89-.51.38.1.62.5.51.9l-2.53 9.54c-.17.65-.63 1.21-1.2 1.56zm-23.11-1.8c0 .96-.61 1.76-1.46 2.07v6.71c0 .4-.32.73-.72.73a.73.73 0 0 1-.73-.73v-6.58h-4.36s-.02.2-.06.3l-2.9 6.58a.73.73 0 1 1-1.34-.6l2.91-6.58.07-.1a2.69 2.69 0 0 1-1.2-1.56l-2.54-9.55c-.1-.39.13-.79.51-.9.4-.1.8.13.9.52l2.53 9.56c.12.45.65.87 1.12.87h5.09a.73.73 0 0 0 0-1.46h-5.09a.73.73 0 0 1-.73-.74c0-.4.33-.73.73-.73h5.09c1.2 0 2.18.99 2.18 2.2zm13.8 8.78c0 .4-.33.73-.73.73-2.61 0-5.8-4.05-5.8-8.77 0-3.1 1.94-5.8 3.3-7.31h-6.62c1.36 1.51 3.31 4.2 3.31 7.3 0 4.73-3.2 8.78-5.81 8.78a.73.73 0 0 1-.73-.73c0-.4.33-.73.73-.73 1.72 0 4.36-3.28 4.36-7.31 0-3.5-3.1-6.57-3.91-7.31h-3.36a.73.73 0 0 1-.72-.73c0-.4.32-.74.72-.74h17.44c.4 0 .73.33.73.74 0 .4-.33.73-.73.73h-3.36c-.8.74-3.9 3.82-3.9 7.3 0 4.04 2.63 7.32 4.35 7.32.4 0 .73.33.73.73zm-25.43-28.51c0-.3.17-.56.44-.67l17.72-7.74v-1.1a.73.73 0 0 1 1.45 0v1.1l17.73 7.74c.27.11.44.37.44.67 0 1.6-1.3 2.92-2.9 2.92h-2.91a2.9 2.9 0 0 1-2.18-1c-.53.62-1.31 1-2.18 1h-2.9a2.9 2.9 0 0 1-2.19-1c-.53.62-1.3 1-2.18 1h-.72v6.58a.73.73 0 0 1-1.45 0v-6.58h-.73a2.9 2.9 0 0 1-2.18-1c-.53.62-1.31 1-2.18 1h-2.9a2.9 2.9 0 0 1-2.19-1c-.53.62-1.3 1-2.18 1h-2.9c-1.6 0-2.9-1.31-2.9-2.92zm1.53.45c.18.58.73 1 1.38 1h2.9c.8 0 1.46-.65 1.46-1.45 0-.4.32-.74.72-.74.4 0 .73.33.73.74 0 .8.65 1.46 1.45 1.46h2.9c.81 0 1.46-.66 1.46-1.46 0-.4.33-.74.73-.74.4 0 .73.33.73.74 0 .8.65 1.46 1.45 1.46h2.9c.8 0 1.46-.66 1.46-1.46 0-.4.32-.74.72-.74.4 0 .73.33.73.74 0 .8.65 1.46 1.45 1.46h2.9c.81 0 1.46-.66 1.46-1.46 0-.4.33-.74.73-.74.4 0 .72.33.72.74 0 .8.66 1.46 1.46 1.46h2.9c.65 0 1.2-.43 1.39-1.01l-17.37-7.58z"/></defs><g><g transform="translate(-519 -962)"><use fill="#60cd56" xlink:href="#c84aa"/></g></g></svg>