<svg xmlns="http://www.w3.org/2000/svg" xmlns:xlink="http://www.w3.org/1999/xlink" width="43" height="43" viewBox="0 0 43 43"><defs><path id="9dz3a" d="M635.3 1001.3c0 .4-.33.72-.74.72-.98 0-1.42.28-1.99.62-.63.4-1.36.84-2.75.84s-2.11-.44-2.75-.84c-.56-.34-1-.62-1.99-.62-.98 0-1.42.28-1.98.62-.64.4-1.36.84-2.75.84-1.4 0-2.12-.44-2.75-.84-.57-.34-1.01-.62-1.99-.62s-1.42.28-1.98.62c-.64.4-1.36.84-2.75.84-1.4 0-2.12-.44-2.75-.84-.57-.34-1.01-.62-1.99-.62s-1.42.28-1.98.62c-.64.4-1.36.84-2.75.84-1.4 0-2.11-.44-2.75-.84-.56-.34-1-.62-1.99-.62a.73.73 0 0 1 0-1.46c1.4 0 2.12.45 2.75.84.57.35 1.01.62 1.99.62s1.42-.27 1.98-.62c.64-.4 1.36-.84 2.75-.84 1.4 0 2.11.45 2.75.84.56.35 1 .62 1.99.62.97 0 1.42-.27 1.98-.62.64-.4 1.36-.84 2.75-.84 1.4 0 2.11.45 2.75.84.56.35 1 .62 1.99.62.97 0 1.42-.27 1.98-.62.64-.4 1.36-.84 2.75-.84 1.4 0 2.12.45 2.75.84.57.35 1.01.62 2 .62.97 0 1.42-.27 1.98-.62.64-.4 1.36-.84 2.75-.84.4 0 .73.33.73.73zm-23.16-25.04a.73.73 0 0 1-.1-.76c1.6-3.68 4.9-4.95 6.94-5.39l-3.1-2.59a.73.73 0 0 1 .31-1.27c3.2-.7 5.54.47 6.6 1.17.83-.94 2.7-2.77 5.04-3.36a.73.73 0 0 1 .88.89l-.82 3.27a6.03 6.03 0 0 1 6.42 2.42.73.73 0 0 1-.43 1.16l-2.48.52c1.42 1.07 3.38 2.95 3.88 5.45a.73.73 0 0 1-.95.84l-3.45-1.15c.93 2.83.78 6.14.77 6.34a.73.73 0 0 1-1.26.46l-6.15-6.62c.81 3.5 1.5 10.62-3.76 17.46 7.47 1.2 10.17 4.85 10.3 5.04a.73.73 0 0 1-.59 1.15.73.73 0 0 1-.6-.3c-.02-.05-3.61-4.81-14.12-4.81-8.84 0-13.1 4.8-13.14 4.86a.73.73 0 0 1-1.1-.96c.12-.14 2.22-2.54 6.51-4.08a10.43 10.43 0 0 1-3.3-8.47c-1.01 1.14-2.22 2.53-3 3.5a.73.73 0 0 1-1.3-.44c-.24-5.7 2.25-7.33 2.36-7.4a.73.73 0 0 1 .78 1.24c-.05.03-1.34.99-1.64 4.08a296.4 296.4 0 0 1 3.49-3.96.73.73 0 0 1 1.09 0l3.51 4.02c.32-1.32.47-2.98-.3-3.51a.73.73 0 1 1 .83-1.2c2.26 1.55.66 5.95.47 6.44a.73.73 0 0 1-1.23.22l-3.48-3.97c-.27 1.29-.79 5.6 3.36 8.94 1.74-.46 3.76-.77 6.09-.77 1.18 0 2.29.06 3.31.16a18.96 18.96 0 0 0 3.83-17.8c-1.61 2.41-4.44 6.61-5.02 7.2a.73.73 0 0 1-1.23-.38c-1.53-7.7 2.61-10.56 2.79-10.68a.73.73 0 0 1 .81 1.21c-.14.1-2.93 2.1-2.42 7.5a344.5 344.5 0 0 0 4.83-7.13.73.73 0 0 1 1.14-.1l6.67 7.19c-.13-2.23-.66-5.33-2.26-6.53a.73.73 0 0 1 .88-1.17c.53.4.96.94 1.32 1.54.1 0 .2 0 .3.03l2.98 1c-1.24-2.53-4.18-4.13-4.22-4.15a.73.73 0 0 1 .2-1.36l2.94-.61c-2.4-2.1-5-.67-5.12-.6a.73.73 0 0 1-1.07-.82l.83-3.28c-2.01 1-3.46 2.9-3.47 2.92a.73.73 0 0 1-.52.29c-.2.02-.4.05-.56-.09a6.98 6.98 0 0 0-4.27-1.37h-.02l3.07 2.46c.23.2.32.46.22.75a.7.7 0 0 1-.67.47c-.2 0-4.3.14-6.6 3.36l1.46-.34a.73.73 0 1 1 .32 1.42l-3.05.7a.73.73 0 0 1-.73-.25zm-15.66 4.21a.73.73 0 0 1 .36-.72c.16-.09 3.3-1.82 6.34-1.14a62.73 62.73 0 0 1-.5-2.7.73.73 0 0 1 1.06-.77c.12.06 2.64 1.37 3.73 3.26 1.42-.52 3.9-.69 5.23-.29.22.07.4.24.48.46.18.5.2.56-2.43 2.8a6.85 6.85 0 0 1 4.39 5.13.73.73 0 0 1-1.04.82l-1.69-.58a.73.73 0 0 1 .47-1.39c.14.05.26.1.38.13a5.34 5.34 0 0 0-4.12-3.03.73.73 0 0 1-.4-1.28l2.15-1.86a8.53 8.53 0 0 0-3.29.63c-.13.12-.32.2-.49.19-.31 0-.6-.21-.69-.51-.27-.88-1.18-1.73-2.02-2.34.16.85.36 1.77.5 2.24a.73.73 0 0 1-1.01.88c-1.45-.74-3.18-.5-4.46-.13l2.4.7a.73.73 0 0 1 .06 1.38c-.02.01-1.7.68-2.89 2.04l.4-.1a.73.73 0 0 1 .34 1.43c-.02 0-1.37.32-2.1.54a.73.73 0 0 1-.89-.97 7.56 7.56 0 0 1 2.96-3.42l-2.71-.78a.73.73 0 0 1-.52-.62z"/></defs><g><g transform="translate(-594 -962)"><use fill="#60cd56" xlink:href="#9dz3a"/></g></g></svg>