<svg xmlns="http://www.w3.org/2000/svg" xmlns:xlink="http://www.w3.org/1999/xlink" width="31" height="43" viewBox="0 0 31 43"><defs><path id="7ifva" d="M830.92 1464.1a1.4 1.4 0 0 1-.36-1.08l.6-5.85c.07-.78.75-1.39 1.53-1.39h2.94c.79 0 1.46.6 1.54 1.39l.6 5.85c.03.4-.1.8-.36 1.08-.26.29-.64.45-1.04.45h-4.41c-.4 0-.78-.16-1.04-.45zm1.12-1h4.28l-.61-5.79c0-.02-.05-.07-.08-.07h-2.94c-.02 0-.07.05-.07.07zm9.83 26.91c.15.6.03 1.19-.31 1.63-.35.44-.9.7-1.52.7h-11.76a1.9 1.9 0 0 1-1.51-.7 1.87 1.87 0 0 1-.31-1.63l.02-.08c.18-.74.39-2 .44-2.76l1.26-16.83a3.92 3.92 0 0 1 1.53-2.74c.41-.27.78-.77.9-1.11l-.08-.24a.73.73 0 0 1 1.4-.46l.14.43c.03.11.04.23.03.34a3.76 3.76 0 0 1-1.57 2.26 2.52 2.52 0 0 0-.89 1.63l-1.25 16.83a21.3 21.3 0 0 1-.49 3l-.02.08c-.04.16-.02.3.05.38.07.09.2.14.35.14h11.76c.16 0 .29-.05.36-.14.07-.09.08-.22.04-.38l-.02-.08c-.2-.82-.42-2.17-.48-3l-1.26-16.83a2.52 2.52 0 0 0-.88-1.63 3.45 3.45 0 0 1-1.5-2.31v-.18l.08-.43c.06-.4.44-.67.84-.6.4.06.67.44.6.84l-.05.33c.07.32.43.86.84 1.13.8.53 1.46 1.71 1.54 2.75l1.25 16.82c.06.75.26 2.02.45 2.75zm12.14-34.96v10.97c0 .16-.06.32-.16.45-.77.96-2.75 3.77-2.78 5.37l2.2 18.22a.7.7 0 0 1 0 .08c0 .1-.04 2.2-3.67 2.2-1.93 0-2.94-1.1-2.94-2.2l-.01-17.54v-2.2c0-2.13 2.2-4.62 2.95-5.41v-9.94c0-.09.01-.56.26-1.06a2.06 2.06 0 0 1 1.94-1.13c1.62 0 2.2 1.3 2.2 2.19zm-1.47 0c0-.33-.14-.73-.74-.73-.59 0-.72.4-.73.74v10.22c0 .2-.08.38-.22.52-.75.76-2.72 3.06-2.72 4.6l-.01 2.2v17.54c0 .36.52.74 1.48.74 1.59 0 2.12-.47 2.2-.74l-2.2-18.18v-.08c0-2.15 2.26-5.24 2.94-6.12zm-4.41 8.77h-3.68a.73.73 0 1 1 0-1.46h3.68a.73.73 0 1 1 0 1.46zm-4.41-9.5c0-.4.33-.73.73-.73h3.68a.73.73 0 1 1 0 1.46h-3.68a.73.73 0 0 1-.73-.73zm0 2.92c0-.4.33-.73.73-.73h3.68a.73.73 0 1 1 0 1.46h-3.68a.73.73 0 0 1-.73-.73zm0 2.93c0-.4.33-.73.73-.73h3.68a.73.73 0 1 1 0 1.46h-3.68a.73.73 0 0 1-.73-.73zm-13.97 27.78h8.82a.73.73 0 1 1 0 1.46h-8.82a.73.73 0 1 1 0-1.46z"/></defs><g><g transform="translate(-825 -1451)"><use fill="#e94565" xlink:href="#7ifva"/></g></g></svg>