<svg xmlns="http://www.w3.org/2000/svg" xmlns:xlink="http://www.w3.org/1999/xlink" width="33" height="44" viewBox="0 0 33 44"><defs><path id="l7i6a" d="M772.4 1334.8c4.41 5.18 7.2 11.76 6.78 16.06-.14 1.44-.64 2.54-1.46 3.2-.58.45-1.39.68-2.34.73-.11.16-.29.3-.5.33-.14.02-1.27.19-2.99.19-.85 0-1.85-.05-2.94-.17l4.7 8.72a.73.73 0 0 1-1.29.7l-5.13-9.53c-.03-.05-.03-.1-.05-.16-1.4-.25-2.88-.65-4.37-1.26l1.4 10.5a.73.73 0 0 1-1.46.2l-1.46-11a.71.71 0 0 1 .05-.36 18.85 18.85 0 0 1-3.37-2.17l-4.8 13.67a.73.73 0 0 1-1.38-.48l4.99-14.24c-.14-.13-.28-.25-.42-.4-6.65-6.79-4.35-17.27-4.03-18.58-.03-1.89.46-3.43 1.54-4.4 2.64-2.35 10.31.45 16.1 5.88a.73.73 0 0 1-1 1.07c-5.85-5.49-12.5-7.3-14.12-5.85-2.44 2.18-.51 10.23 5.61 17.34 6.34 7.36 14.4 9.66 16.35 8.11.5-.4.81-1.15.91-2.17.3-3.23-1.57-9.24-6.38-14.93l-6.63 6.23a.73.73 0 0 1-1.03-.03.73.73 0 0 1 .03-1.03l9.1-8.57a3.67 3.67 0 1 1 1 1.08zm-15 13.51c4.01 4.1 9.3 5.22 12.96 5.46a29.15 29.15 0 0 1-11-8.02 32 32 0 0 1-6.15-10.43c-.17 3.73.4 9.11 4.2 13zm16.34-17.8a2.2 2.2 0 1 0 4.4 0 2.2 2.2 0 0 0-4.4 0z"/></defs><g><g transform="translate(-748 -1322)"><use fill="#60cd56" xlink:href="#l7i6a"/></g></g></svg>