<svg xmlns="http://www.w3.org/2000/svg" xmlns:xlink="http://www.w3.org/1999/xlink" width="43" height="42" viewBox="0 0 43 42"><defs><path id="pjyma" d="M560.36 1476.98c0 .4-.33.73-.73.73h-37.9a.73.73 0 0 1 0-1.46h37.9c.4 0 .73.33.73.73zm-37.16-2.19c0-8.85 6.57-16.2 15.07-17.38a2.91 2.91 0 1 1 4.83 0 17.55 17.55 0 0 1 15.09 17.38c0 .4-.33.73-.73.73h-33.54a.73.73 0 0 1-.72-.73zm17.48-17.55a1.46 1.46 0 0 0 0-2.92 1.46 1.46 0 0 0 0 2.92zm-16.01 16.82h32.03a16.08 16.08 0 0 0-16.02-15.36c-8.59 0-15.63 6.83-16.01 15.36zm11.82-11.76c.15.37-.03.8-.4.95a12.46 12.46 0 0 0-7.4 8.41.73.73 0 1 1-1.4-.37 13.93 13.93 0 0 1 8.25-9.4c.37-.15.8.03.95.4zm20.15 17.59c.1.19.1.4.02.6-.8 1.88-5.45 8.92-13.79 8.92h-9.28a2.6 2.6 0 0 0-1.03 1.62.73.73 0 0 1-.71.58h-10.11a.73.73 0 0 1-.64-1.09c.26-.46 6.35-11.34 12.3-11.34h13.84c.38 0 .7.28.73.65 0 .07.15 1.6-.84 2.7a3.4 3.4 0 0 1-2.66 1.03h-5.28c.9.38 2.29.73 4.42.73h.1c3.66 0 6.17-2.23 6.6-2.64.28-.5 1.56-2.4 4.19-2.4.54 0 1.1.09 1.69.25.2.06.36.2.45.39zm-1.78.84a3.4 3.4 0 0 0-3.32 1.7.74.74 0 0 1-.13.18 11.4 11.4 0 0 1-7.7 3.15h-.12c-5.88-.07-7.1-2.36-7.21-2.62a.73.73 0 0 1 .66-1.04h7.43c.71 0 1.24-.18 1.57-.55.25-.27.37-.61.43-.91H533.4c-3.78 0-8.3 6.1-10.39 9.5h8.3a3.87 3.87 0 0 1 1.78-2.12c.1-.05.2-.07.3-.07h9.48c6.9 0 10.75-5.18 12-7.22z"/></defs><g><g transform="translate(-519 -1451)"><use fill="#e94565" xlink:href="#pjyma"/></g></g></svg>