<svg xmlns="http://www.w3.org/2000/svg" xmlns:xlink="http://www.w3.org/1999/xlink" width="43" height="43" viewBox="0 0 43 43"><defs><path id="ylcha" d="M616.13 1485.72c.86.86.86 2.26 0 3.13l-1.36 1.36c-.41.41-.97.64-1.56.64-.59 0-1.14-.23-1.55-.64l-.26-.26c-.1.23-.24.44-.42.62l-.79.78a2.19 2.19 0 0 1-3.12 0l-4.73-4.75-2.23 2.2a.73.73 0 0 1-1.04 0 .74.74 0 0 1 .01-1.05l2.22-2.2-4.73-4.74a2.2 2.2 0 0 1-.65-1.56c0-.6.23-1.15.65-1.57l.78-.78c.18-.18.4-.32.62-.42l-1.4-1.41a2.2 2.2 0 0 1-.65-1.56c0-.6.23-1.15.65-1.57l1.35-1.36a2.26 2.26 0 0 1 3.12 0zm-5.98 3.29c0-.2-.07-.39-.21-.52l-10.51-10.55a.73.73 0 0 0-.52-.21c-.2 0-.38.07-.52.21l-.79.79a.74.74 0 0 0-.21.52c0 .2.06.38.2.52l5.25 5.27h-.03l5.28 5.27a.8.8 0 0 0 1.07 0l.78-.78a.73.73 0 0 0 .21-.52zm4.94-2.25L600 1471.63a.73.73 0 0 0-.52-.22c-.2 0-.38.08-.52.22l-1.35 1.36a.73.73 0 0 0-.22.52c0 .2.08.38.22.52l15.08 15.13c.28.28.77.28 1.04 0l1.36-1.36a.74.74 0 0 0 0-1.04zm18.56-18.94c-.18.18-.39.32-.61.43l.25.25a2.2 2.2 0 0 1 0 3.13l-1.35 1.36a2.19 2.19 0 0 1-3.12 0l-15.09-15.14a2.22 2.22 0 0 1 0-3.13l1.36-1.36a2.25 2.25 0 0 1 3.11 0l1.4 1.4c.1-.22.25-.43.43-.61l.78-.79a2.25 2.25 0 0 1 3.12 0l4.75 4.77 2.27-2.17a.73.73 0 0 1 1.04.03c.28.3.27.76-.03 1.04l-2.25 2.14 4.73 4.74c.86.86.86 2.26 0 3.12zm-1.18 2.24c0-.2-.08-.38-.22-.52l-15.08-15.13a.73.73 0 0 0-.52-.22c-.2 0-.38.08-.52.22l-1.36 1.36a.74.74 0 0 0 0 1.04l15.09 15.13c.27.28.76.28 1.04 0l1.35-1.36a.73.73 0 0 0 .22-.52zm.93-5.11l-10.51-10.54a.73.73 0 0 0-.52-.22c-.2 0-.38.08-.52.22l-.78.78a.73.73 0 0 0-.22.52c0 .2.08.39.22.52l10.5 10.55c.28.27.77.27 1.04 0l.79-.79a.74.74 0 0 0 0-1.04zm-12.23 1.72c.29.29.29.76 0 1.04l-10.3 10.34a.73.73 0 0 1-1.04 0 .74.74 0 0 1 0-1.05l10.3-10.33a.73.73 0 0 1 1.04 0z"/></defs><g><g transform="translate(-594 -1451)"><use fill="#e94565" xlink:href="#ylcha"/></g></g></svg>