<svg xmlns="http://www.w3.org/2000/svg" xmlns:xlink="http://www.w3.org/1999/xlink" width="42" height="41" viewBox="0 0 42 41"><defs><path id="jwcca" d="M678.6 979.98a.73.73 0 0 1-.52 1.24.72.72 0 0 1-.52-.23 8.16 8.16 0 0 1-2.32-5.91c.07-1.99.9-3.89 2.3-5.22a.72.72 0 0 1 1.02.03c.28.29.27.75-.02 1.03a6.17 6.17 0 0 0-1.85 4.21 6.6 6.6 0 0 0 1.92 4.85zm29.34 18.33c.82.87.8 2.26-.08 3.1l-.5.47a2.16 2.16 0 0 1-3.07-.08l-6.02-6.37a5.93 5.93 0 0 1-1.37-2.92l-.03-.2c-.03-.31 0-.62.1-.9a.7.7 0 0 1-.19-.12l-2.61-2.73c-2.33-.68-7.55-.6-7.6-.6a.77.77 0 0 1-.41-.15l-.35.02c-3.68 0-7.65-1.89-10.64-5.05-4.82-5.09-3.8-11.86-.04-15.47a10.5 10.5 0 0 1 7.2-2.85c3.03 0 5.92 1.3 8.15 3.64a16.5 16.5 0 0 1 4.37 8.67c.13.9.16 1.76.09 2.6.1.16.14.35.1.55-.5 2.4.05 6.64.2 7.65l2.59 2.7.1.17c.31-.12.66-.16 1.05-.08l.13.02c.92.2 2.15.88 2.8 1.56zm-22.13-11.94a7.5 7.5 0 0 0 5.37-2.1c2.4-2.3 2.54-5.23 2.24-7.29a15 15 0 0 0-4-7.87 9.76 9.76 0 0 0-7.09-3.2c-2.32 0-4.58.9-6.2 2.46-3.25 3.1-4.1 8.98.09 13.4 2.68 2.84 6.35 4.6 9.59 4.6zm4.68.22c1.1.07 2.24.18 3.2.36-.1-.78-.21-1.92-.27-3.12a8.93 8.93 0 0 1-2.93 2.76zm16.4 12.73l-6.03-6.37a4.7 4.7 0 0 0-2.04-1.14l-.12-.02a.64.64 0 0 0-.13-.02c-.07 0-.15.01-.2.07-.05.06-.07.17-.06.3l.03.2c.07.64.53 1.62.98 2.09l6.02 6.37c.27.28.75.29 1.03.02l.5-.47c.28-.28.3-.74.02-1.03zm-10.2-28.23a6.55 6.55 0 0 1 6.53-6.56c3.6 0 6.52 2.94 6.52 6.56a6.55 6.55 0 0 1-6.52 6.56 6.55 6.55 0 0 1-6.53-6.56zm9.3-4.27a.72.72 0 0 1-.29.07c-1.07.06-1.47.3-1.61.48-.26.34-.1 1.07.05 1.84.23 1.16.52 2.6-.32 3.85a3.87 3.87 0 0 1-3.35 1.7 5.5 5.5 0 0 1-.84-.07c.92.93 2.19 1.5 3.59 1.5a5.1 5.1 0 0 0 2.77-9.37zm-7.85 4.27c0 .62.12 1.21.32 1.76l.17.04c.12.06 2.7 1.25 3.99-.66.5-.73.3-1.7.1-2.73-.22-1.06-.44-2.16.22-3.02.15-.19.33-.35.54-.48l-.26-.02a5.1 5.1 0 0 0-5.08 5.1z"/></defs><g><g transform="translate(-669 -963)"><use fill="#60cd56" xlink:href="#jwcca"/></g></g></svg>